<svg width="8" height="6" viewBox="0 0 8 6" fill="none" xmlns="http://www.w3.org/2000/svg">
    <path d="M4.25703 3.05907L2.2408 1.04043C2.16768 0.967274 2.08087 0.909241 1.98532 0.869647C1.88977 0.830052 1.78736 0.809673 1.68393 0.809673C1.5805 0.809673 1.47809 0.830052 1.38254 0.869647C1.28699 0.909241 1.20018 0.967274 1.12707 1.04043C0.985104 1.19061 0.906006 1.38944 0.906006 1.5961C0.906006 1.80276 0.985104 2.00158 1.12707 2.15176L4.08421 5.1137C4.12918 5.15841 4.19002 5.1835 4.25343 5.1835C4.31684 5.1835 4.37768 5.15841 4.42265 5.1137L7.37739 2.15176C7.45226 2.07994 7.51205 1.99391 7.55327 1.89871C7.59448 1.8035 7.61629 1.70103 7.61742 1.5973C7.61816 1.44152 7.57253 1.28904 7.48634 1.15928C7.40015 1.02951 7.27729 0.928333 7.13341 0.868618C6.98953 0.808903 6.83113 0.793354 6.67838 0.823951C6.52563 0.854547 6.38545 0.929905 6.27567 1.04043L4.25703 3.05907Z" fill="#1A1C1E"/>
</svg>
