<svg width="10" height="11" viewBox="0 0 10 11" fill="none" xmlns="http://www.w3.org/2000/svg">
    <path fill-rule="evenodd" clip-rule="evenodd" d="M4.49837 1.50021C2.56544 1.50021 0.998498 3.06715 0.998498 5.00008C0.998498 6.93301 2.56544 8.49995 4.49837 8.49995C6.43131 8.49995 7.99824 6.93301 7.99824 5.00008C7.99824 3.06715 6.4313 1.50021 4.49837 1.50021ZM-0.00146484 5.00008C-0.00146484 2.51489 2.01318 0.500244 4.49837 0.500244C6.98357 0.500244 8.9982 2.51489 8.9982 5.00008C8.9982 6.06255 8.62998 7.03902 8.01419 7.80882L9.85173 9.64635C10.047 9.84161 10.047 10.1582 9.85173 10.3534C9.65647 10.5487 9.3399 10.5487 9.14464 10.3534L7.30711 8.5159C6.53731 9.13169 5.56084 9.49991 4.49837 9.49991C2.01318 9.49991 -0.00146484 7.48528 -0.00146484 5.00008Z" fill="#1A1C1E"/>
</svg>
