<svg xmlns="http://www.w3.org/2000/svg">
    <symbol id="social-watsapp" width="14" height="14" viewBox="0 0 14 14">
        <path d="M11.4227 2.57659C10.5555 1.70681 9.44987 1.11356 8.24563 0.871802C7.04138 0.63004 5.7925 0.750606 4.65675 1.21827C3.52099 1.68593 2.54932 2.47972 1.86447 3.49934C1.17962 4.51896 0.81232 5.71869 0.808972 6.94695C0.795425 8.03472 1.08357 9.10498 1.64142 10.0389L0.749512 13.2498L4.04958 12.3876C4.96014 12.887 5.98416 13.143 7.02261 13.1309C8.24753 13.1358 9.44633 12.7769 10.467 12.0996C11.4876 11.4223 12.2841 10.4572 12.7555 9.32657C13.2268 8.19596 13.3518 6.95084 13.1145 5.74911C12.8772 4.54739 12.2884 3.4432 11.4227 2.57659ZM7.02261 12.0903C6.01965 12.0975 5.03696 11.8079 4.19823 11.2579L2.23603 11.793L2.77117 9.89026C2.18016 9.02164 1.85948 7.99752 1.84953 6.94695C1.84365 5.92257 2.14203 4.9195 2.70687 4.06489C3.2717 3.21028 4.07755 2.54261 5.02227 2.14651C5.967 1.75041 7.00805 1.64371 8.01348 1.83995C9.01891 2.03618 9.94344 2.52651 10.6699 3.24878C11.3963 3.97105 11.892 4.89274 12.094 5.89702C12.296 6.9013 12.1953 7.94296 11.8047 8.88995C11.414 9.83694 10.751 10.6466 9.89969 11.2164C9.04834 11.7861 8.04701 12.0903 7.02261 12.0903Z" fill="#2CB742"/>
        <path d="M9.84699 8.25509C9.50214 8.06246 9.14455 7.8936 8.7767 7.74967C8.65778 7.69021 8.53886 7.66048 8.44967 7.80913C8.36048 7.95779 8.03344 8.31455 7.94425 8.43347C7.90402 8.47952 7.84759 8.5083 7.78669 8.51383C7.72579 8.51937 7.6651 8.50124 7.61722 8.4632C7.16163 8.27535 6.73984 8.01424 6.36854 7.69021C6.02757 7.38014 5.73673 7.01909 5.50636 6.61992C5.48989 6.59678 5.47833 6.57052 5.47239 6.54274C5.46646 6.51496 5.46627 6.48627 5.47184 6.45842C5.47741 6.43057 5.48862 6.40415 5.50478 6.38079C5.52095 6.35744 5.54172 6.33764 5.56583 6.32262L5.80367 6.02531C5.86373 5.9531 5.91373 5.8731 5.95232 5.78747C5.9758 5.74679 5.98817 5.70065 5.98817 5.65368C5.98817 5.60672 5.9758 5.56057 5.95232 5.5199C5.89286 5.43071 5.59556 4.68745 5.47663 4.36041C5.35771 4.03338 5.20906 4.09284 5.11987 4.09284H4.82257C4.74159 4.09165 4.66151 4.10993 4.58908 4.14615C4.51664 4.18236 4.45397 4.23546 4.40634 4.30095C4.22897 4.46185 4.08911 4.65975 3.99663 4.88066C3.90416 5.10156 3.86134 5.34008 3.8712 5.57936C3.92303 6.16284 4.13955 6.7196 4.49553 7.1848C4.58472 7.27399 5.59556 8.8497 7.14153 9.50376C7.42748 9.64155 7.7262 9.75108 8.03344 9.8308C8.34963 9.9362 8.68795 9.9567 9.01454 9.89026C9.31185 9.86053 9.93618 9.53349 10.0551 9.17673C10.174 8.81996 10.2038 8.49293 10.1443 8.43347C10.064 8.34713 9.96095 8.28529 9.84699 8.25509Z" fill="#2CB742"/>
    </symbol>
    <symbol id="location" width="14" height="14" viewBox="0 0 14 14">
        <path d="M7.09654 13.1458C6.51516 13.1458 7.20293 12.2278 4.33676 10.7999C4.17973 10.7216 4.02735 10.6342 3.88038 10.5383C2.45427 9.61045 1.57349 7.91341 1.57349 6.08674C1.57349 3.0822 4.04607 0.64624 7.09654 0.64624C10.147 0.64624 12.6196 3.0822 12.6196 6.08616C12.6196 8.09887 11.5475 9.95636 9.86097 10.7976C6.99189 12.2272 7.67791 13.1458 7.09654 13.1458ZM7.09654 8.26805C8.32382 8.26805 9.30576 7.296 9.30576 6.11406C9.30576 4.93213 8.32382 3.96007 7.09654 3.96007C5.86926 3.96007 4.88732 4.93213 4.88732 6.11406C4.88732 7.296 5.86926 8.26805 7.09654 8.26805Z" fill="#1A1C1E"/>
    </symbol>
    <symbol id="book" width="13" height="14" viewBox="0 0 13 14">
        <path d="M11.7919 1.50015H11.038C11.038 1.51055 11.038 1.51964 11.038 1.53004V4.51584H11.7919C12.2221 4.51584 12.5718 4.16618 12.5718 3.73592V2.28007C12.5718 1.84981 12.2221 1.50015 11.7919 1.50015Z" fill="#1A1C1E"/>
        <path d="M12.5718 7.64853V6.19267C12.5718 5.76242 12.2221 5.41275 11.7919 5.41275H11.038V8.42845H11.7919C12.2221 8.42845 12.5718 8.07878 12.5718 7.64853Z" fill="#1A1C1E"/>
        <path d="M11.038 12.2436C11.038 12.2761 11.0367 12.3086 11.0354 12.3411H11.7919C12.2221 12.3411 12.5718 11.9914 12.5718 11.5611V10.1053C12.5718 9.67502 12.2221 9.32536 11.7919 9.32536H11.038V12.2436Z" fill="#1A1C1E"/>
        <path d="M9.72899 0.791718C9.6497 0.764421 9.56651 0.750122 9.4781 0.750122H2.49781V13.0235H9.4781C9.87586 13.0235 10.2034 12.7258 10.2515 12.3411C10.2554 12.3086 10.258 12.2761 10.258 12.2436V1.53004C10.258 1.51964 10.258 1.51055 10.2567 1.50015C10.245 1.16998 10.028 0.893108 9.72899 0.791718ZM6.09716 6.66063H4.13956C3.85228 6.66063 3.61961 6.42795 3.61961 6.14068C3.61961 5.85341 3.85228 5.62073 4.13956 5.62073H6.09586C6.38313 5.62073 6.61581 5.85341 6.61581 6.14068C6.61581 6.42795 6.38443 6.66063 6.09716 6.66063ZM8.05346 4.29227H4.13956C3.85228 4.29227 3.61961 4.05959 3.61961 3.77232C3.61961 3.48505 3.85228 3.25237 4.13956 3.25237H8.05346C8.34073 3.25237 8.57341 3.48505 8.57341 3.77232C8.57341 4.05959 8.34073 4.29227 8.05346 4.29227Z" fill="#1A1C1E"/>
        <path d="M0.601312 0.791718C0.293243 0.895707 0.0722656 1.18688 0.0722656 1.53004V12.2436C0.0722656 12.6738 0.42193 13.0235 0.852187 13.0235H1.58791V0.750122H0.852187C0.763796 0.750122 0.679304 0.764421 0.601312 0.791718Z" fill="#1A1C1E"/>
    </symbol>
    <symbol id="search" width="10" height="11" viewBox="0 0 10 11">
        <path fill-rule="evenodd" clip-rule="evenodd" d="M4.49837 1.50021C2.56544 1.50021 0.998498 3.06715 0.998498 5.00008C0.998498 6.93301 2.56544 8.49995 4.49837 8.49995C6.43131 8.49995 7.99824 6.93301 7.99824 5.00008C7.99824 3.06715 6.4313 1.50021 4.49837 1.50021ZM-0.00146484 5.00008C-0.00146484 2.51489 2.01318 0.500244 4.49837 0.500244C6.98357 0.500244 8.9982 2.51489 8.9982 5.00008C8.9982 6.06255 8.62998 7.03902 8.01419 7.80882L9.85173 9.64635C10.047 9.84161 10.047 10.1582 9.85173 10.3534C9.65647 10.5487 9.3399 10.5487 9.14464 10.3534L7.30711 8.5159C6.53731 9.13169 5.56084 9.49991 4.49837 9.49991C2.01318 9.49991 -0.00146484 7.48528 -0.00146484 5.00008Z" fill="#1A1C1E"/>
    </symbol>

</svg>